<?xml version="1.0" encoding="UTF-8"?>
<svg id="svg5009" width="40.96" height="40.96" version="1.1" viewBox="0 0 10.837 10.837" xmlns="http://www.w3.org/2000/svg" xmlns:cc="http://creativecommons.org/ns#" xmlns:dc="http://purl.org/dc/elements/1.1/" xmlns:rdf="http://www.w3.org/1999/02/22-rdf-syntax-ns#">
 <defs id="defs5003">
  <filter id="filter1634" x="-.17924" y="-.18328" width="1.3585" height="1.3666" color-interpolation-filters="sRGB">
   <feGaussianBlur id="feGaussianBlur1636" stdDeviation="0.15371851"/>
  </filter>
  <clipPath id="clipPath1687">
   <path id="path1689" d="m8.1864 6.1887s-0.09591 0.33361-0.010369 0.73472c0 0 0.65837-0.54428 0.92348-0.27074 0.63282 0.65293 0.90415 1.8969 0.24241 2.3878-0.23938 0.17757-0.65893-0.15977-0.79407-0.3968-0.10678-0.1873-0.0030533-0.44464 0.0858-0.64107 0.097551-0.21566 1.061e-4 -0.39664-0.17199-0.32881-0.15896 0.062653-0.37148 0.17852-0.53424 0.12651-0.36212-0.11573-0.71592-0.88779-0.71592-0.88779z" fill="none"/>
  </clipPath>
  <clipPath id="clipPath1752">
   <path id="path1754" d="m7.4462 10.236c0.26502 0.45239-1.1844 0.5719-1.2985 0.15133-0.36497-1.3464 0.73214-3.6596 0.73214-3.6596l0.77584 0.035054s-0.7958 2.4725-0.20952 3.4732z" fill="none"/>
  </clipPath>
  <clipPath id="clipPath1791">
   <path id="path1793" d="m4.3364 9.2704c-0.031805-0.52149-0.12984-0.72268-0.50848-1.0913-0.25153-0.24485-0.14368-0.62172 0.051707-0.74551 0.2344-0.1485-0.041712-0.41593-0.041712-0.41593l-0.45983-0.45083 1.8871-0.27451s0.31347 0.67093 0.30606 1.0286c-0.010308 0.49759-0.86954 0.5113-0.86954 0.5113s0.81179 1.0837 0.81017 1.6631c-8.996e-4 0.32622-1.1516 0.16598-1.1755-0.22489z" fill="none"/>
  </clipPath>
  <clipPath id="clipPath1820">
   <path id="path1822" d="m3.5477 6.5725s-2.4404 2.2411-2.2196 3.63c0.055891 0.35161 0.7944 0.28218 1.1177 0.18988 0.24761-0.070684 0.028624-0.42972 0.046732-0.81991 0.032331-0.69666 0.64088-0.98732 1.0942-1.3464 0.41889-0.33176 0.8631-1.0572 0.8631-1.0572" fill="none"/>
  </clipPath>
 </defs>
 <metadata id="metadata5006">
  <rdf:RDF>
   <cc:Work rdf:about="">
    <dc:format>image/svg+xml</dc:format>
    <dc:type rdf:resource="http://purl.org/dc/dcmitype/StillImage"/>
    <dc:title/>
   </cc:Work>
  </rdf:RDF>
 </metadata>
 <g id="layer2">
  <path id="path1826" d="m3.4252 5.9123s-0.035217 0.81563-0.54715 1.4023l1.4857 0.11326z" fill="#85888b"/>
  <g id="g1685" clip-path="url(#clipPath1687)">
   <path id="path1676" d="m7.8171 7.9091 0.69449-1.2943-0.48072-0.78014-1.2771 1.2685z" fill="#923ab8"/>
   <path id="path1674" d="m7.7825 7.8936c-0.14239-0.82937 0.47475-1.1124 0.47475-1.1124l0.25004 1.0933z" fill="#de64bf"/>
   <path id="path1672" d="m8.2272 6.8012s-0.38758 0.65156 0.23138 0.98722l0.24073-0.13676-0.1257-1.3122z" fill="#923ab8"/>
   <path id="path1670" d="m9.6167 6.9435-0.71486-0.61953-0.42871 0.28781s-0.088162 0.7609 0.09051 1.1831z" fill="#de64bf"/>
   <path id="path1668" d="m9.9472 7.7616-0.41384-0.91621s-0.75006 0.25011-1.1308 1.0994z" fill="#923ab8"/>
   <path id="path1666" d="m10.172 8.6173-1.9205-0.37259 0.26344-0.43901s0.70661 0.014773 1.2829-0.27419z" fill="#de64bf"/>
   <path id="path1664" d="m8.5067 8.0434s0.56448 0.33331 1.366 0.38196l-0.58925 0.95866-1.2317-0.75698z" fill="#923ab8"/>
  </g>
  <g id="g1818" clip-path="url(#clipPath1820)">
   <path id="path1809" d="m4.4662 7.3213c-0.78957-0.029982-1.4604-0.48758-1.4604-0.48758l-0.38618 0.39214 1.6048 0.62885z" fill="#923ab8"/>
   <path id="path1807" d="m4.2802 7.7214c-1.1379-0.18216-1.5647-0.7207-1.5647-0.7207l-0.54919 0.63978 1.6028 0.92033z" fill="#de64bf"/>
   <path id="path1805" d="m3.1708 8.8413 0.5368-0.54758c-0.58379-0.067686-1.212-0.95072-1.212-0.95072l-0.58481 0.63704z" fill="#923ab8"/>
   <path id="path1803" d="m3.2725 8.6423c-0.64097-0.0596-1.3041-0.89263-1.3041-0.89263l-0.59674 0.89002 1.5545 0.48746z" fill="#de64bf"/>
   <path id="path1801" d="m2.9853 8.9985c-1.0631-0.10826-1.5104-0.73652-1.5104-0.73652l-0.36972 1.1328 1.7374 0.1269z" fill="#923ab8"/>
   <path id="path1799" d="m2.9335 9.3718c-1.0615 0.083428-1.6256-0.21991-1.6256-0.21991l-0.33528 0.79017 2.0666 0.00604z" fill="#de64bf"/>
   <path id="path1797" d="m2.8306 9.7809c-0.71452 0.16688-1.8123 0.025448-1.8123 0.025448l-0.029852 0.98799 2.0109-0.18059z" fill="#923ab8"/>
  </g>
  <path id="path1658" d="m4.397 5.1531c-0.63779-0.54767-2.3765-0.69196-3.0942 0.30793-0.45 0.62698-0.26293 1.6386 0.11323 2.3125 0.53185 0.95279-0.65937 1.6037-0.65937 1.6037 1.5156-0.012088 2.6471-0.38292 2.3882-2.0209 0.11283 0.10793 0.14604 0.25795 0.14604 0.25795s0.16958-0.47546-0.17929-1.0927c-0.40772-0.7214 0.42901-1.4854 0.90467-1.0072" fill="#734c1a"/>
  <path id="path1824" d="m8.3628 5.4152c0.36565 0.68959-0.17063 1.6257-0.96578 1.7266-0.5654 0.071786-1.0189-0.26426-1.6895-0.35415-0.74206-0.099484-1.3239 0.11439-1.3239 0.11439l-0.54576 0.11569s-0.44979-0.28314-0.41269-1.1054c0.022972-0.50918 0.34213-1.0393 1.1431-0.91268 0.512 0.08092 0.81992 0.2803 1.4342 0.27008 1.2081-0.020086 0.40187-1.6977 0.40187-1.6977l1.8203 0.29856s-0.37817 0.57101 0.13807 1.5446z" fill="#929699"/>
  <path id="path1660" d="m8.7401 1.9453s0.24172 0.3369 0.36133 0.71329c0.028921 0.091009 0.49018-0.16999 0.51381-0.00232 0.024152 0.17131 0.066447 0.63555-0.011846 0.71982-0.049654 0.053443-1.3648 1.1581-2.925 0.53589l-0.36175-1.4938 1.1954-0.92086z" fill="#929699"/>
  <path id="path1656" d="m6.9578 1.5358s-1.719 0.32428-1.2885 2.3214c0.046826-0.22349 0.15828-0.32558 0.15828-0.32558s0.036413 0.50829 0.35841 0.93778c0.40665 0.54241 0.077261 1.5838 0.077261 1.5838 1.167-0.49888 0.77551-1.5581 0.77551-1.5581s0.10673 0.093847 0.30816 0.058984c-1.1064-0.71448-0.8158-2.1423-0.45556-2.4576z" fill="#734c1a"/>
  <rect id="rect1642" transform="rotate(-15)" x="2.2155" y="6.9328" width=".81686" height=".54925" ry="0" fill="#415045"/>
  <path id="path1654" d="m7.3357 1.7816c1.7262 1.0818 2.6786-0.63052 2.6786-0.63052-0.66564 0.3263-1.16-0.1265-1.16-0.1265 0.23389-0.12201 0.61437-0.04546 0.61437-0.04546s-1.172-0.97384-2.3643 0.51838" fill="#734c1a"/>
  <path id="path842" d="m8.9268 1.5075 0.48728-1.3066-0.81311 1.1477z" fill="#929699"/>
  <rect id="rect1640" transform="rotate(-15)" x="2.4037" y="7.0371" width=".28271" height=".19394" ry="0" fill="#025006"/>
  <rect id="rect1644" transform="rotate(-15)" x="2.1589" y="6.8698" width=".11322" height=".67536" ry="0" fill="#415045"/>
  <rect id="rect1648" transform="rotate(-15)" x="2.3721" y="7.2752" width=".36232" height=".080592" ry="0" fill="#2b2621"/>
  <path id="path1650" d="m7.3805 1.975s-0.028672-0.95314-0.12335-0.94466c-0.12878 0.011531-0.61599 0.41534-0.72178 1.2028-0.026488 0.19716 0.13934 0.37852 0.13934 0.37852" fill="#929699"/>
  <rect id="rect1646" transform="rotate(-15)" x="2.9758" y="6.8698" width=".11322" height=".67536" ry="0" fill="#415045"/>
  <g id="g1742" clip-path="url(#clipPath1752)">
   <path id="path1703" d="m7.4675 9.7507-1.7412 0.16458 0.34529 0.98171 1.8192-0.2547z" fill="#a542d1"/>
   <path id="path1701" d="m7.3432 9.2581-1.4663 0.018 0.00188 0.73106s0.65282 0.24503 1.5342-0.094132z" fill="#fc71d9"/>
   <path id="path1699" d="m7.383 8.8148-1.3885-0.091392-0.023117 0.63507s0.54939 0.37553 1.3837 0.018413z" fill="#a542d1"/>
   <path id="path1697" d="m7.4178 8.3283-1.2121-0.12494-0.12304 0.67018s0.53553 0.24631 1.2362 0.029767z" fill="#fc71d9"/>
   <path id="path1695" d="m7.4804 7.9902-1.0308-0.27056-0.22324 0.62483s0.6853 0.29153 1.1292 0.11573z" fill="#a542d1"/>
   <path id="path1693" d="m6.4222 7.1791 1.3426 0.25772-0.28017 0.60931s-0.73473 0.12835-1.1701-0.16989z" fill="#fc71d9"/>
   <path id="path1691" d="m6.2394 7.1554c0.67736 0.64382 1.6129 0.37316 1.6129 0.37316l0.058292-0.56468s-0.87649 0.25672-1.5155-0.20325z" fill="#a542d1"/>
  </g>
  <g id="g1789" clip-path="url(#clipPath1791)">
   <path id="path1772" d="m5.8871 7.3761-0.39185-0.65744s-1.1955-0.22536-1.8448 0.46377l0.03497 0.42093z" fill="#a542d1"/>
   <path id="path1770" d="m3.7312 7.4469c0.86792-0.51687 1.9643-0.26759 1.9643-0.26759l-0.095795 0.97985z" fill="#fc71d9"/>
   <path id="path1768" d="m4.9781 7.9027c-0.69412-0.25174-1.2517-0.6815-1.2517-0.6815l-0.29063 0.5477z" fill="#a542d1"/>
   <path id="path1766" d="m3.515 7.5505c0.42832 0.28809 1.3689 0.33581 1.3689 0.33581l0.11832 0.13813-1.2472 0.38843z" fill="#fc71d9"/>
   <path id="path1764" d="m3.743 8.2645c0.57135-0.046839 1.1502-0.38347 1.1502-0.38347l0.47208 0.49247-1.3591 0.47325z" fill="#a542d1"/>
   <path id="path1762" d="m5.2358 8.3476c-0.28539 0.23485-1.1955 0.32712-1.1955 0.32712l0.13896 0.5969 1.4202-0.31706z" fill="#fc71d9"/>
   <path id="path1760" d="m5.6296 8.8682c-0.15965 0.19801-1.6236 0.090044-1.6236 0.090044l0.093718 0.77063 1.8243 0.15836z" fill="#a542d1"/>
  </g>
 </g>
 <g id="g1869">
  <g id="g1879" transform="rotate(-47.631 -.17436 -.67806)">
   <rect id="rect1861" x="-.2261" y="3.2021" width=".49218" height="8.1699" ry=".15434" fill="#a07a4b"/>
   <rect id="rect1875" x="-1.2412" y="3.3459" width="2.5225" height="1.1023" ry=".17041" fill="#414946"/>
  </g>
  <path id="path1865" d="m6.8723 5.5283c0.06439-0.2453 0.52155-0.35045 0.79716-0.2882 0.47629 0.10757 0.63183 0.7085 1.0298 1.0418 0.27256 0.22825 0.02904 0.50397-0.03591 0.70993-0.08645 0.27412-0.61903 0.31093-0.85071 0.14082-0.3326-0.2442-0.67145-0.3398-0.88546-0.63271-0.267-0.36543-0.13724-0.65786-0.054887-0.97162z" fill="#1bba3d" fill-opacity=".53957" filter="url(#filter1634)"/>
 </g>
 <g id="layer4">
  <path id="path1638" d="m8.4734 1.2748c-0.041761-0.25015 0.6276-1.1823 0.90357-1.1217 0.33755 0.074165-0.04084 1.1438-0.23003 1.4874-0.13928 0.25297-0.64746-0.20952-0.67354-0.36571z" fill="#1bba3d" fill-opacity=".53957" filter="url(#filter1634)"/>
 </g>
</svg>
